{
  "asset": {
    "version": "2.0",
    "generator": "THREE.GLTFExporter"
  },
  "scenes": [
    {
      "nodes": [
        0
      ],
      "name": "AuxScene"
    }
  ],
  "scene": 0,
  "nodes": [
    {
      "mesh": 0
    }
  ],
  "bufferViews": [
    {
      "buffer": 0,
      "byteOffset": 0,
      "byteLength": 60336,
      "target": 34962,
      "byteStride": 12
    },
    {
      "buffer": 0,
      "byteOffset": 60336,
      "byteLength": 60336,
      "target": 34962,
      "byteStride": 12
    },
    {
      "buffer": 0,
      "byteOffset": 120672,
      "byteLength": 60336,
      "target": 34962,
      "byteStride": 12
    },
    {
      "buffer": 0,
      "byteOffset": 181008,
      "byteLength": 40224,
      "target": 34962,
      "byteStride": 8
    }
  ],
  "buffers": [
    {
      "byteLength": 221232,
      "uri": "feisar.bin"
    }
  ],
  "accessors": [
    {
      "bufferView": 0,
      "componentType": 5126,
      "count": 5028,
      "max": [
        2.6963930130004883,
        1.3524270057678223,
        4.18037223815918
      ],
      "min": [
        -2.6963930130004883,
        0,
        -4.18037223815918
      ],
      "type": "VEC3"
    },
    {
      "bufferView": 1,
      "componentType": 5126,
      "count": 5028,
      "max": [
        1,
        1,
        1
      ],
      "min": [
        -1,
        -1,
        -1
      ],
      "type": "VEC3"
    },
    {
      "bufferView": 2,
      "componentType": 5126,
      "count": 5028,
      "max": [
        1,
        1,
        1
      ],
      "min": [
        1,
        1,
        1
      ],
      "type": "VEC3"
    },
    {
      "bufferView": 3,
      "componentType": 5126,
      "count": 5028,
      "max": [
        0.9940400123596191,
        0.9895899891853333
      ],
      "min": [
        0.010799000039696693,
        0.010799000039696693
      ],
      "type": "VEC2"
    }
  ],
  "images": [
      { "uri": "diffuse.jpg" },
      { "uri": "normal.jpg" }
  ],
  "samplers": [
      {
          "magFilter": 9729,
          "minFilter": 9987,
          "wrapS": 10497,
          "wrapT": 10497
      }
  ],
  "textures": [
      {
          "sampler": 0,
          "source": 0
      },
      {
          "sampler": 0,
          "source": 1
      }
  ],
  "materials": [
    {
        "pbrMetallicRoughness": {
            "baseColorFactor": [ 0.8, 0.8, 0.8, 1 ],
            "baseColorTexture": { "index": 0 },
            "metallicFactor": 0.5,
            "roughnessFactor": 0.5
        },
        "normalTexture": { "index": 1 }
    }
  ],
  "meshes": [
    {
      "primitives": [
        {
          "mode": 4,
          "attributes": {
            "POSITION": 0,
            "NORMAL": 1,
            "COLOR_0": 2,
            "TEXCOORD_0": 3
          },
          "material": 0
        }
      ]
    }
  ]
}
